# xmcd
#
# Track frame offsets:
#	150
#	20569
#	41116
#	60395
#	82286
#	103673
#	121371
#	140005
#	159811
#	190635
#	213292
#	228766
#	246689
#	266144
#	286573
#	313812
#
# Disc length: 4405 seconds
#
# Revision: 1
# Processed by: cddbd v1.5.2PL0 Copyright (c) Steve Scherf et al.
# Submitted via: audiograbber 1.80
#
DISCID=e4113310
DTITLE=Chris Rea - The Best Of 1994 Magnet Records
DYEAR=1900
DGENRE=
TTITLE0=The Road To Hell
TTITLE1=Josephine
TTITLE2=Let's Dance
TTITLE3=Fool(If You Think It's Over)
TTITLE4=Auberge
TTITLE5=Julia
TTITLE6=Stainsby Girls
TTITLE7=If You Were Me (Duets With Elton John)
TTITLE8=On The Beach
TTITLE9=Looking For The Summer
TTITLE10=I Can Hear Your Heartbeat
TTITLE11=You Can Go Your Own Way
TTITLE12=God's Great Banana Skin
TTITLE13=Winter Song
TTITLE14=Gone Fishing
TTITLE15=Tell Me There's A Heaven
EXTD=
EXTT0=
EXTT1=
EXTT2=
EXTT3=
EXTT4=
EXTT5=
EXTT6=
EXTT7=
EXTT8=
EXTT9=
EXTT10=
EXTT11=
EXTT12=
EXTT13=
EXTT14=
EXTT15=
PLAYORDER=
